<svg id="图层_1" data-name="图层 1" xmlns="http://www.w3.org/2000/svg" xmlns:xlink="http://www.w3.org/1999/xlink" viewBox="0 0 800 800"><defs><style>.cls-1{fill:url(#未命名的渐变_7);}.cls-2{fill:url(#未命名的渐变_7-2);}.cls-3{fill:url(#未命名的渐变_7-3);}.cls-4{fill:url(#未命名的渐变_7-4);}.cls-5{fill:url(#未命名的渐变_7-5);}</style><linearGradient id="未命名的渐变_7" x1="-1923.42" y1="1696.33" x2="787.29" y2="13.38" gradientUnits="userSpaceOnUse"><stop offset="0" stop-color="#969696"/><stop offset="0.47"/></linearGradient><linearGradient id="未命名的渐变_7-2" x1="-582.35" y1="1209.58" x2="839.56" y2="326.78" xlink:href="#未命名的渐变_7"/><linearGradient id="未命名的渐变_7-3" x1="128.04" y1="967.13" x2="792.43" y2="554.64" xlink:href="#未命名的渐变_7"/><linearGradient id="未命名的渐变_7-4" x1="196.05" y1="860.83" x2="664.35" y2="570.09" xlink:href="#未命名的渐变_7"/><linearGradient id="未命名的渐变_7-5" x1="75.83" y1="905.55" x2="577.52" y2="594.08" xlink:href="#未命名的渐变_7"/></defs><title>ATN-logo-dark</title><path class="cls-1" d="M561.83,367.19l-27-23.87a20,20,0,0,0-22.08-2.95c-42.1,20.82-184.55,93.47-271.31,164.73-14.43,11.85-35.76-.92-32.25-19.25l41.92-218.6a20,20,0,0,1,31.31-12.45l126,90.69a20,20,0,0,0,21.91,1l35.43-21.1a20,20,0,0,0,1.57-33.3L229.78,118.27a20,20,0,0,0-31.41,12.25l-105,530c-3.71,18.77,18.52,31.54,32.84,18.85C196.82,616.87,347.55,496.49,557,400.29A20,20,0,0,0,561.83,367.19Z"/><path class="cls-2" d="M686.62,458.16l-56.16-43.34a20.05,20.05,0,0,0-20.73-2.26c-83.54,39-150,79.77-201,116.16-19.41,13.85-2.55,43.82,19.46,34.63,100.19-41.83,194.87-61.18,249.28-69.63C694.85,491,700.51,468.87,686.62,458.16Z"/><polygon class="cls-3" points="695.21 592.36 670.29 652.97 647.8 601.23 644.03 592.36 603.62 685.6 617.08 685.6 642.83 625.39 665.35 677.57 669.15 685.6 707 592.36 695.21 592.36"/><polygon class="cls-4" points="541.73 595.86 538.96 608.24 562.71 608.24 545.45 685.26 559.96 685.26 577.22 608.24 600.85 608.24 603.62 595.86 541.73 595.86"/><path class="cls-5" d="M430.16,685.26h15.26l15.53-23h35.42l5,23h15.33l-22.42-92.9ZM469,650.12l13.74-20.38c.88-1.41,1.79-3,2.71-4.66s1.87-3.51,2.79-5.46c.09,2.08.26,4,.44,5.64s.41,3.19.64,4.48L494,650.12Z"/></svg>